<svg xmlns="http://www.w3.org/2000/svg" viewBox="0 0 512 512" height="512" width="512">
  <!-- Speech bubble fill -->
  <path fill="#7E57C2" d="M74.667 42.667c-8.533 0-16 3.2-22.4 9.6-6.4 6.4-9.6 13.867-9.6 22.4v394.666l85.333-85.333h309.333c8.534 0 16-3.2 22.4-9.6 6.4-6.4 9.6-13.866 9.6-22.4V74.667c0-8.533-3.2-16-9.6-22.4-6.4-6.4-13.866-9.6-22.4-9.6H74.667z"/>
  <!-- Speech bubble tail shadow -->
  <path fill="#512DA8" d="M42.667 469.333l85.333-85.333H74.667l-32 42.667z"/>
  <!-- Speech bubble outline -->
  <path fill="#512DA8" d="M42.667 469.333V74.667c0-8.533 3.2-16 9.6-22.4 6.4-6.4 13.867-9.6 22.4-9.6h362.666c8.534 0 16 3.2 22.4 9.6 6.4 6.4 9.6 13.867 9.6 22.4v277.333c0 8.534-3.2 16-9.6 22.4-6.4 6.4-13.866 9.6-22.4 9.6H128l-85.333 85.333zm71.466-117.333H437.333V74.667H74.667v320l39.466-42.667z"/>
  <!-- Question mark and exclamation point -->
  <g fill="#FFFFFF">
    <path d="M178.274 186.592l-19.725 0c-1.875-6.125-3.2-12.275-3.2-18.925 0-33.6 21.6-56 55.2-56 31.175 0 50.9 17.075 54.375 47.45.275 2.15.275 4.55.275 6.95 0 14.125-3.75 26.125-13.35 36-9.325 9.325-15.725 15.45-25.85 24.25-10.925 9.6-10.925 26.125-10.925 38.4h-20.525c0-28.8 6.4-40.8 15.725-50.125 9.075-9.075 22.125-17.075 29.05-25.85 5.875-6.95 7.475-15.2 7.475-22.675 0-23.2-13.075-36.25-36.25-36.25-23.475 0-36.8 14.675-36.8 37.85 0 6.95 1.6 13.075 4.525 18.95zm16.275 99.45h20.525v20.525h-20.525z"/>
    <path d="M312.306 257.692c.22 1.66.943 3.258 2.172 4.789 1.219 1.528 2.668 2.297 4.339 2.297 3.897 0 6.065-2.365 6.509-7.086l13.022-114.655c.224-2.034.335-4.905.335-8.607 0-5.741-1.721-10.966-5.174-15.691-3.45-4.717-8.348-7.072-14.692-7.072-6.573 0-11.521 2.42-14.859 7.262-3.337 4.724-5.007 9.89-5.007 15.502 0 3.444.105 6.313.329 8.606z"/>
    <path d="M326.023 289.011c-2.105-2.104-4.768-3.159-7.986-3.159-3.156 0-5.819 1.088-7.986 3.253-2.167 2.166-3.248 4.796-3.248 7.891 0 2.97 1.081 5.601 3.248 7.892 2.167 2.229 4.831 3.342 7.986 3.342 3.155 0 5.815-1.082 7.986-3.251 2.163-2.163 3.248-4.826 3.248-7.983 0-3.158-1.085-5.818-3.248-7.985z"/>
  </g>
</svg>
